<svg width="28" height="28" viewBox="0 0 28 28" fill="none" xmlns="http://www.w3.org/2000/svg">
<circle cx="14" cy="14" r="12.75" stroke="white" stroke-width="2.5"/>
<path d="M16.3074 8.06109C16.0104 7.85323 15.6393 7.68001 15.1939 7.57608C14.7486 7.47214 14.3032 7.4375 13.8207 7.4375C13.3011 7.4375 12.8186 7.50679 12.3361 7.61072C11.8536 7.71465 11.4083 7.88787 11 8.13038V10.3476C11.4083 10.0358 11.8165 9.79328 12.2619 9.62006C12.7073 9.44684 13.1155 9.37755 13.5609 9.37755C13.7465 9.37755 13.932 9.4122 14.0805 9.44684C14.2289 9.51613 14.3774 9.58542 14.4888 9.65471C14.6001 9.72399 14.6743 9.86257 14.7486 10.0011C14.8228 10.1397 14.8228 10.2783 14.8228 10.4169C14.8228 10.5901 14.7857 10.7633 14.7486 10.9019C14.7114 11.0405 14.6001 11.179 14.5259 11.3176C14.4145 11.4562 14.3032 11.5948 14.1547 11.7333C14.0063 11.8719 13.8207 12.0105 13.6351 12.1837C13.4495 12.3223 13.264 12.4955 13.1526 12.6341C13.0042 12.7726 12.8928 12.9459 12.7815 13.1191C12.6701 13.2923 12.633 13.4655 12.5588 13.6387C12.4846 13.812 12.4846 14.0198 12.4846 14.2623C12.4846 14.4009 12.4846 14.5395 12.5217 14.7127C12.5588 14.8859 12.5959 15.0245 12.633 15.1284H14.7114C14.6372 15.0591 14.6001 14.9552 14.563 14.8166C14.5259 14.6781 14.5259 14.5741 14.5259 14.4702C14.5259 14.297 14.563 14.1584 14.6001 14.0198C14.6372 13.8813 14.7114 13.7427 14.8228 13.6387C14.897 13.5348 15.0455 13.3962 15.1568 13.2577C15.3053 13.1191 15.4537 13.0152 15.6393 12.8419C15.8991 12.6341 16.1589 12.4262 16.3816 12.2183C16.6043 12.0105 16.7527 11.8026 16.9012 11.5948C17.0496 11.3869 17.161 11.1444 17.2352 10.9019C17.3094 10.6594 17.3466 10.3822 17.3466 10.0704C17.3466 9.58542 17.2723 9.20433 17.0868 8.8579C16.8641 8.5461 16.6414 8.26895 16.3074 8.06109Z" fill="white"/>
<path d="M13.7844 15.9258C13.3761 15.9258 13.005 16.0297 12.7452 16.2722C12.4483 16.5147 12.3369 16.7919 12.3369 17.1383C12.3369 17.4848 12.4854 17.7619 12.7452 18.0044C13.0421 18.2469 13.3761 18.3509 13.7844 18.3509C14.1926 18.3509 14.5638 18.2469 14.8236 18.0044C15.0834 17.7619 15.2318 17.4848 15.2318 17.1383C15.2318 16.7919 15.0834 16.5147 14.8236 16.2722C14.5266 16.0297 14.1926 15.9258 13.7844 15.9258Z" fill="white"/>
</svg>
