<svg width="16" height="16" viewBox="0 0 16 16" fill="none" xmlns="http://www.w3.org/2000/svg">
<path d="M7.79219 9.6C10.4432 9.6 12.5922 7.45097 12.5922 4.8C12.5922 2.14903 10.4432 0 7.79219 0C5.14122 0 2.99219 2.14903 2.99219 4.8C2.99219 7.45097 5.14122 9.6 7.79219 9.6Z" fill="#1F1F1F"/>
<path d="M14.0006 15.9992H1.60863C0.552631 15.9992 -0.207369 14.9912 0.0566307 13.9752C0.552631 12.0712 1.73663 10.4392 3.32863 9.36719C4.47263 10.4952 6.05663 11.1992 7.80063 11.1992C9.54463 11.1992 11.1286 10.4952 12.2726 9.36719C12.6966 9.65519 13.0966 9.98319 13.4566 10.3432C14.4726 11.3592 15.2166 12.6392 15.5686 14.0792C15.8086 15.0632 15.0166 15.9992 14.0006 15.9992Z" fill="#1F1F1F"/>
</svg>
