<svg width="33" height="23" viewBox="0 0 33 23" fill="none" xmlns="http://www.w3.org/2000/svg">
<path d="M2.475 0.998047C1.1055 0.998047 0 2.0899 0 3.44249V20.5536C0 21.9062 1.1055 22.998 2.475 22.998H30.525C31.8945 22.998 33 21.9062 33 20.5536V3.44249C33 2.0899 31.8945 0.998047 30.525 0.998047H2.475ZM4.11263 5.05991C4.36013 5.03139 4.60763 5.11695 4.78088 5.28806L15.3904 15.2207C16.0463 15.8358 16.9373 15.8236 17.5931 15.2084L28.215 5.29214C28.545 4.98251 29.0689 4.99879 29.3824 5.32471C29.6959 5.65064 29.6794 6.16805 29.3494 6.47768L23.331 12.104L29.337 17.5021C29.6753 17.8118 29.6918 18.3292 29.3824 18.6592C29.073 18.9892 28.5532 19.0095 28.215 18.7081L22.1306 13.2203L18.7275 16.3899C17.4735 17.5592 15.4935 17.5632 14.2395 16.3899L10.8611 13.2325L4.77675 18.7081C4.4385 19.0136 3.9105 18.9851 3.60525 18.651C3.3 18.3169 3.32475 17.8036 3.65475 17.498L9.66075 12.0999L3.6465 6.4736C3.30825 6.17212 3.2835 5.65471 3.58875 5.32063C3.729 5.17397 3.9105 5.08028 4.11263 5.05991Z" fill="#BDBDBD"/>
</svg>
