<svg width="33" height="32" viewBox="0 0 33 32" fill="none" xmlns="http://www.w3.org/2000/svg">
<path d="M16.9994 0C8.17382 0 0.999423 7.1808 0.999423 16C0.999423 18.9376 1.79942 21.7984 3.32262 24.2944L1.03142 31.1616C0.954623 31.392 1.01222 31.6416 1.18502 31.8144C1.30662 31.936 1.47302 32 1.63942 32C1.70982 32 1.77382 31.9936 1.84422 31.968L8.70502 29.6832C11.2074 31.2 14.0682 32 16.9994 32C25.825 32 32.9994 24.8256 32.9994 16C32.9994 7.1808 25.825 0 16.9994 0ZM27.2394 22.4768C27.2394 23.0336 27.009 23.584 26.6122 23.9808L24.9482 25.6256C24.5514 26.0224 24.0138 26.24 23.4634 26.24H23.3802C14.4394 25.856 7.14342 18.56 6.75942 9.6256C6.73382 9.0432 6.95782 8.4672 7.37382 8.0512L9.01862 6.3872C9.41542 5.9904 9.96582 5.76 10.529 5.76H11.1434C12.0202 5.76 12.8202 6.3104 13.1274 7.136L14.5866 11.008C14.8682 11.7632 14.6954 12.6272 14.1386 13.216L13.537 13.8496C13.2618 14.1376 13.2298 14.5792 13.4538 14.9056C14.1962 15.9808 15.7834 18.0096 18.1002 19.5712C18.4202 19.7824 18.8554 19.744 19.137 19.4752L19.7898 18.8608C20.3722 18.304 21.2362 18.1312 21.9914 18.4128L25.8634 19.872C26.689 20.1856 27.2394 20.9792 27.2394 21.856V22.4768Z" fill="#BDBDBD"/>
</svg>
