<?xml version="1.0" encoding="UTF-8"?> <svg xmlns="http://www.w3.org/2000/svg" width="17" height="16" viewBox="0 0 17 16" fill="none"><path d="M12.5062 3.8023L4.9163 1.04055L8.1824 0.0220352C8.27544 -0.00734507 8.37827 -0.00734507 8.4762 0.0220352L16.1787 2.42632L12.5062 3.8023ZM3.37383 1.52043L0.479878 2.42632L8.32441 5.36924L11.0959 4.33114L3.37383 1.52043ZM13.2211 4.57598V6.85295C13.2211 7.12226 13.0008 7.34262 12.7314 7.34262C12.4621 7.34262 12.2418 7.12226 12.2418 6.85295V4.94323L8.81408 6.22617V16C8.82387 15.9951 8.83366 15.9951 8.83856 15.9951L15.694 13.4243C16.2669 13.2089 16.6439 12.6604 16.6488 12.0484V3.29304L13.2211 4.57598ZM0 12.0484C0 12.6604 0.381943 13.2089 0.954859 13.4243L7.81025 15.9951C7.82005 16 7.82984 16 7.83474 16V6.23106L0 3.29304V12.0484Z" fill="#1F1F1F"></path></svg> 