<?xml version="1.0" encoding="UTF-8"?> <svg xmlns="http://www.w3.org/2000/svg" width="15" height="20" viewBox="0 0 15 20" fill="none"><path d="M13.6347 4C12.5647 1.77 10.4047 0.26 7.94474 0.03C7.45474 -0.01 6.97474 -0.01 6.48474 0.03C4.01474 0.26 1.85474 1.77 0.794745 4C-0.385255 6.36 -0.245255 9.16 1.17474 11.38L6.37474 19.54C6.67475 20 7.28475 20.14 7.75475 19.84C7.87474 19.76 7.98475 19.66 8.05475 19.54L13.2547 11.38C14.6647 9.16 14.8147 6.36 13.6347 4ZM7.21474 10C5.55474 10 4.21474 8.66 4.21474 7C4.21474 5.34 5.55474 4 7.21474 4C8.87474 4 10.2147 5.34 10.2147 7C10.2147 8.65 8.87474 10 7.21474 10Z" fill="#1F1F1F"></path></svg> 