<?xml version="1.0" encoding="UTF-8"?> <svg xmlns="http://www.w3.org/2000/svg" width="101" height="100" viewBox="0 0 101 100" fill="none"><path d="M50.383 100C77.9972 100 100.383 77.6142 100.383 50C100.383 22.3858 77.9972 0 50.383 0C22.7687 0 0.38298 22.3858 0.38298 50C0.38298 77.6142 22.7687 100 50.383 100Z" fill="#EAEAEA"></path><path d="M39.363 64.905C39.1487 64.9038 38.9395 64.8394 38.7616 64.7199C38.5837 64.6004 38.445 64.431 38.363 64.233C38.2807 64.0343 38.2591 63.8156 38.3012 63.6047C38.3432 63.3938 38.4468 63.2 38.599 63.048C38.7511 62.8957 38.945 62.7919 39.1561 62.7499C39.3673 62.7079 39.5861 62.7295 39.785 62.812C39.983 62.8941 40.1523 63.0327 40.2719 63.2106C40.3914 63.3885 40.4558 63.5977 40.457 63.812C40.4574 63.9558 40.4293 64.0983 40.3745 64.2313C40.3197 64.3643 40.2391 64.4851 40.1375 64.5868C40.0358 64.6886 39.9151 64.7692 39.7822 64.8242C39.6493 64.8791 39.5068 64.9073 39.363 64.907V64.905ZM39.363 61.279C38.8607 61.279 38.3697 61.428 37.9521 61.7071C37.5345 61.9862 37.2091 62.3829 37.017 62.847C36.8249 63.311 36.7746 63.8214 36.8725 64.3139C36.9704 64.8064 37.2121 65.2588 37.567 65.614C37.9221 65.9687 38.3743 66.2103 38.8666 66.3082C39.3589 66.4061 39.8692 66.3559 40.333 66.164C40.7971 65.9721 41.1939 65.6469 41.4732 65.2295C41.7525 64.8121 41.9017 64.3213 41.902 63.819C41.9009 63.1459 41.6331 62.5006 41.1572 62.0245C40.6813 61.5484 40.0361 61.2803 39.363 61.279Z" fill="black" fill-opacity="0.53"></path><path d="M43.94 70.349C44.9906 69.6146 45.8484 68.6375 46.4407 67.5007C47.033 66.3638 47.3421 65.1009 47.342 63.819V44.96H62.213V50.76C62.2138 50.9521 62.2904 51.136 62.4262 51.2718C62.562 51.4076 62.7459 51.4842 62.938 51.485H68.738V70.348L43.94 70.349ZM32.834 63.821C32.833 62.9628 33.0015 62.1128 33.3298 61.3198C33.658 60.5268 34.1397 59.8064 34.747 59.2C35.3532 58.5941 36.0729 58.1136 36.8649 57.786C37.657 57.4584 38.5058 57.2902 39.363 57.291C40.2201 57.2903 41.0689 57.4585 41.861 57.7861C42.653 58.1136 43.3727 58.5941 43.979 59.2C44.5858 59.8063 45.0671 60.5264 45.3952 61.319C45.7233 62.1116 45.8917 62.9612 45.891 63.819C45.8913 64.6763 45.7227 65.5253 45.3946 66.3174C45.0665 67.1095 44.5855 67.8291 43.979 68.435C43.373 69.0416 42.6535 69.5228 41.8614 69.851C41.0693 70.1793 40.2203 70.3482 39.363 70.348C37.6323 70.3465 35.973 69.6585 34.749 68.435C33.5247 67.2106 32.836 65.5505 32.834 63.819V63.821ZM32.834 41.559V36.98C32.8348 35.8345 33.1369 34.7093 33.71 33.7174C34.2831 32.7256 35.107 31.9019 36.099 31.329C37.0913 30.7563 38.2168 30.4549 39.3625 30.4549C40.5082 30.4549 41.6337 30.7563 42.626 31.329C43.6182 31.9016 44.4422 32.7253 45.0153 33.7172C45.5885 34.7091 45.8904 35.8344 45.891 36.98V59.242C45.1566 58.192 44.1797 57.3346 43.0433 56.7427C41.9068 56.1508 40.6443 55.8419 39.363 55.842C38.0816 55.8419 36.8192 56.151 35.6827 56.7429C34.5463 57.3347 33.5694 58.192 32.835 59.242L32.834 41.559ZM67.723 50.038H63.669V45.984L67.723 50.038ZM70.182 50.625V50.616C70.172 50.5727 70.1586 50.5302 70.142 50.489C70.142 50.489 70.142 50.482 70.142 50.477C70.1237 50.4368 70.103 50.3977 70.08 50.36C70.08 50.36 70.08 50.36 70.08 50.353C70.0518 50.3165 70.0218 50.2814 69.99 50.248L69.94 50.201L68.743 49.013L64.689 44.959L63.499 43.773L63.452 43.723C63.419 43.691 63.384 43.661 63.347 43.633H63.341C63.3037 43.6098 63.265 43.5891 63.225 43.571C63.225 43.571 63.218 43.571 63.213 43.571C63.1722 43.5531 63.1296 43.5397 63.086 43.531H63.076C63.0311 43.5202 62.9851 43.5152 62.939 43.516H47.343V36.988C47.3427 35.5874 46.9739 34.2115 46.2738 32.9984C45.5736 31.7854 44.5666 30.7778 43.354 30.077C42.1407 29.3771 40.7646 29.0087 39.364 29.0087C37.9633 29.0087 36.5872 29.3771 35.374 30.077C34.1608 30.7774 33.1533 31.7848 32.4528 32.9979C31.7522 34.211 31.3832 35.5872 31.383 36.988V63.819C31.3854 65.9344 32.227 67.9624 33.723 69.458C35.2184 70.9551 37.2469 71.7974 39.363 71.8H69.463C69.6551 71.7992 69.8391 71.7226 69.9751 71.5869C70.1111 71.4511 70.1879 71.2671 70.189 71.075V50.762C70.1891 50.7159 70.1841 50.67 70.174 50.625H70.182Z" fill="black" fill-opacity="0.53"></path></svg> 