<?xml version="1.0" encoding="UTF-8"?> <svg xmlns="http://www.w3.org/2000/svg" width="34" height="37" viewBox="0 0 34 37" fill="none"><path d="M6.9178 30.6657C6.73477 30.6647 6.5561 30.6097 6.40418 30.5076C6.25226 30.4055 6.13384 30.2608 6.06376 30.0918C5.99346 29.9221 5.97509 29.7353 6.01097 29.5552C6.04684 29.375 6.13536 29.2095 6.26531 29.0797C6.39521 28.9496 6.56082 28.861 6.74115 28.8251C6.92147 28.7892 7.10839 28.8077 7.27821 28.8782C7.44729 28.9482 7.59194 29.0667 7.69403 29.2186C7.79612 29.3705 7.85112 29.5492 7.85212 29.7322C7.85246 29.855 7.82853 29.9767 7.78171 30.0903C7.73488 30.2038 7.66609 30.307 7.57927 30.3939C7.49246 30.4808 7.38933 30.5497 7.27582 30.5966C7.1623 30.6436 7.04063 30.6676 6.9178 30.6674V30.6657ZM6.9178 27.5689C6.48883 27.5689 6.06949 27.6961 5.71285 27.9345C5.3562 28.1729 5.07827 28.5117 4.91422 28.9081C4.75016 29.3043 4.70723 29.7402 4.79083 30.1608C4.87444 30.5814 5.08083 30.9678 5.38394 31.2712C5.68723 31.5741 6.07347 31.7804 6.4939 31.864C6.91434 31.9476 7.35012 31.9048 7.74622 31.7409C8.14261 31.577 8.4815 31.2993 8.72002 30.9428C8.95854 30.5863 9.08598 30.1671 9.08622 29.7382C9.08531 29.1633 8.85659 28.6122 8.45016 28.2056C8.04372 27.799 7.4927 27.57 6.9178 27.5689Z" fill="black" fill-opacity="0.53"></path><path d="M10.8268 35.3151C11.724 34.6879 12.4567 33.8534 12.9625 32.8825C13.4683 31.9116 13.7324 30.8329 13.7322 29.7382V13.6318H26.4327V18.5852C26.4333 18.7493 26.4988 18.9064 26.6148 19.0223C26.7307 19.1383 26.8878 19.2038 27.0519 19.2044H32.0053V35.3142L10.8268 35.3151ZM1.34176 29.7399C1.34093 29.0069 1.48483 28.281 1.76519 27.6037C2.04556 26.9265 2.45687 26.3113 2.97554 25.7934C3.49326 25.2759 4.10792 24.8655 4.78437 24.5857C5.46082 24.306 6.18578 24.1623 6.9178 24.163C7.64981 24.1624 8.37476 24.3061 9.0512 24.5858C9.72764 24.8656 10.3423 25.2759 10.8601 25.7934C11.3783 26.3112 11.7893 26.9262 12.0696 27.6031C12.3498 28.28 12.4937 29.0056 12.493 29.7382C12.4933 30.4704 12.3493 31.1955 12.0691 31.8719C11.7889 32.5484 11.378 33.1629 10.8601 33.6805C10.3426 34.1985 9.72802 34.6094 9.05157 34.8898C8.37512 35.1701 7.65004 35.3144 6.9178 35.3142C5.43977 35.3129 4.02261 34.7253 2.97725 33.6805C1.93163 32.6347 1.34346 31.217 1.34176 29.7382V29.7399ZM1.34176 10.7272V6.81653C1.34246 5.8382 1.60048 4.87727 2.08992 4.03016C2.57935 3.18305 3.28299 2.47958 4.1302 1.99034C4.97767 1.50126 5.93891 1.24378 6.91737 1.24378C7.89584 1.24378 8.85708 1.50126 9.70454 1.99034C10.5519 2.47938 11.2557 3.18281 11.7452 4.02996C12.2346 4.87711 12.4925 5.83815 12.493 6.81653V25.8292C11.8658 24.9325 11.0315 24.2003 10.0609 23.6947C9.09034 23.1892 8.01213 22.9254 6.9178 22.9255C5.82348 22.9254 4.74529 23.1893 3.77473 23.6948C2.80416 24.2003 1.96986 24.9325 1.34261 25.8292L1.34176 10.7272ZM31.1384 17.9686H27.6762V14.5063L31.1384 17.9686ZM33.2385 18.4699V18.4623C33.23 18.4253 33.2186 18.389 33.2044 18.3538C33.2044 18.3538 33.2044 18.3478 33.2044 18.3436C33.1888 18.3092 33.1711 18.2758 33.1514 18.2436C33.1514 18.2436 33.1514 18.2436 33.1514 18.2376C33.1274 18.2064 33.1017 18.1765 33.0746 18.148L33.0319 18.1078L32.0096 17.0932L28.5473 13.6309L27.531 12.618L27.4908 12.5753C27.4627 12.548 27.4328 12.5224 27.4012 12.4985H27.396C27.3642 12.4787 27.3311 12.461 27.297 12.4455C27.297 12.4455 27.291 12.4455 27.2867 12.4455C27.2519 12.4302 27.2155 12.4188 27.1783 12.4114H27.1697C27.1314 12.4022 27.0921 12.3979 27.0527 12.3986H13.7331V6.82337C13.7328 5.62718 13.4179 4.45209 12.8199 3.41609C12.2219 2.38009 11.362 1.51962 10.3263 0.921079C9.29009 0.323332 8.1149 0.00866699 6.91865 0.00866699C5.72241 0.00866699 4.54721 0.323332 3.51102 0.921079C2.47491 1.51928 1.61449 2.37962 1.01619 3.41567C0.417883 4.45171 0.102781 5.62697 0.102539 6.82337V29.7382C0.104649 31.5448 0.823372 33.2768 2.101 34.5541C3.3782 35.8327 5.11062 36.5521 6.9178 36.5543H32.6245C32.7886 36.5536 32.9458 36.4882 33.0619 36.3723C33.178 36.2563 33.2436 36.0992 33.2445 35.9351V18.587C33.2447 18.5476 33.2404 18.5083 33.2317 18.4699H33.2385Z" fill="black" fill-opacity="0.53"></path></svg> 